<svg enable-background="new 0 0 2500 1408.6" viewBox="0 0 2500 1408.6" xmlns="http://www.w3.org/2000/svg"><g fill="#fcb316"><path d="m1236.2 162.7c-131.6 0-238.3 106.7-238.3 238.3s106.7 238.2 238.3 238.2 238.3-106.6 238.3-238.2c-.1-131.6-106.7-238.3-238.3-238.3zm0 397.9c-88.2 0-159.6-71.5-159.6-159.6 0-88.2 71.5-159.6 159.6-159.6s159.6 71.5 159.6 159.6c0 88.2-71.5 159.6-159.6 159.6z"/><path d="m1245.1 31.2c-219.2 0-374 125.5-374 374 0 234 167.4 369.5 374 369.5 206.5 0 374-148.9 374-369.5 0-233.1-167.4-374-374-374zm0 687.7c-174.5 0-315.9-141.5-315.9-315.9 0-174.5 141.4-315.9 315.9-315.9s316 141.4 316 315.9c0 174.4-141.5 315.9-316 315.9z"/><path d="m849.2 282.6c-.7-1.6-3.3-61.7 6-96.1 30.2-143.4 154.6-175.2 165.3-178 50.3-14.5 121.4-6 121.4-6s-90.6 11-146.6 44.5-81.3 73.8-87.3 81.9c-37.8 46.2-54.8 132.6-58.8 153.7zm790.9 0c.7-1.6 3.3-61.7-6-96.1-30.2-143.5-154.6-175.2-165.4-178-50.3-14.5-121.3-6-121.3-6s90.6 11 146.6 44.5 81.3 73.8 87.4 81.9c37.7 46.2 54.6 132.6 58.7 153.7zm-790.9 236.8c-.7 1.6-3.3 61.7 6 96.1 30.2 143.4 154.6 175.2 165.3 178 50.3 14.5 121.4 6 121.4 6s-90.6-11-146.6-44.5-81.3-73.8-87.3-81.9c-37.8-46.2-54.8-132.6-58.8-153.7zm790.9 0c.7 1.6 3.3 61.7-6 96.1-30.2 143.4-154.6 175.2-165.4 178-50.3 14.5-121.3 6-121.3 6s90.6-11 146.6-44.5 81.3-73.8 87.4-81.9c37.7-46.2 54.6-132.6 58.7-153.7zm87.1 172.1c9 9.1 14.1 21.4 14.1 34.2 0 13.4-5 25.3-14.2 34.2-9.6 9.3-21.9 14.5-34.6 14.5-13 0-25-5.1-34.3-14.6-9.2-9.3-14.2-21.2-14.2-34.1 0-12.8 5.3-25.3 14.7-34.9 8.9-9.1 20.7-13.8 33.8-13.8 13.2.1 25.4 5.1 34.7 14.5zm-4.4 4.5c-7.9-8.1-18.8-12.7-30.2-12.6-11.4 0-21.8 4.2-29.5 12-8.2 8.4-12.8 19.2-12.8 30.3s4.5 21.5 12.5 29.6c7.7 8 18.4 12.5 29.5 12.6 11.5 0 21.9-4.3 30.3-12.4 7.9-7.7 12.4-18.3 12.3-29.3-.1-11.8-4.3-22.4-12.1-30.2zm-6 16.4c0 7.8-4.6 13.2-12.6 14.9l12.3 25.1h-11.6l-11.2-23.5h-10.3v23.5h-10.4v-55.2h20.8c15.5 0 23 5.1 23 15.2zm-33.4-8.4v18.2h8.8c9.5 0 13.9-2.3 13.9-8.8 0-6.8-4.5-9.5-14.2-9.5h-8.5z"/></g><path d="m45.7 1267.9c26.1 22 64.9 33 116.7 33 50.6 0 89.3-10.6 116.7-32.2 27.3-22.9 41.2-55.1 41.2-96.3 0-19.2-3.7-36.7-12.6-52.6-9-15.8-22.5-28.6-38.8-36.7-10.6-5.3-17.1-7.8-30.2-11.4-13.9-4.5-84-23.2-91-25.3-38.8-9.4-63.6-22.4-63.6-45.7 2-44.5 43.7-48.1 66.5-48.1 23.7 0 42.4 4.9 56.3 15.1 24.5 19.2 22 43.7 22 43.7h77.9c-1.6-38.3-15.1-69.3-41.2-93-24.9-21.2-60.8-31.8-107.3-31.8-49.8 0-87.7 10.2-113.4 31-26.1 21-39.2 50.4-39.2 87.9 0 48.1 22.8 76.3 43.7 89.3 12.6 7.3 41.2 19.2 77.9 26.5l31 6.9c53.9 13.1 84.5 29.8 83.6 56.3-.4 15.9-6.1 28.2-18.4 36.7-11 7.8-30.2 12.6-53.8 12.6-26.9 0-47.7-5.3-62.8-15.9-14.7-9-23.3-25.3-26.5-48.1h-80.4c2.4 43 17.5 76 45.7 98.1m369.6 101.5c0 20.4-15.9 39.2-39.2 39.2h-39.1v-286.8c4.9-76.3 32.6-137.1 148.5-141.2 50.2.8 86.5 20.4 108.1 45.7 22.9 29.8 33.1 67.3 33.1 113.8 0 48.6-11.4 87.7-34.7 117.5-22.9 29.4-52.6 43.7-88.5 43.7-54.3 0-80.4-22.4-87.7-26.9-.5 3.3-.5 95-.5 95zm131.4-225.6c0-29.8-5.3-93.4-66.9-93.4-58.3 0-64.4 61.6-64.4 93.4 0 79.5 45.3 89.7 66.9 89.7 55.8.1 64.4-58.7 64.4-89.7zm237.4-95.4c49.4-.8 56.7 41.2 58.3 62h-116.6s-.8-60.8 58.3-62zm3.7 184.4c-20-.8-57.5-4.9-61.2-71h198.7v-23.7c-1.2-49.8-13.5-86.9-36.7-115-25.3-27.3-60.8-41.2-106.5-41.2-43.7 0-77.5 14.3-102 42.4-23.7 27.3-35.5 65.7-35.5 114.6 0 51 12.2 90.6 36.7 117.9 24.5 28.2 58.3 42.4 102 42.4 35.9 0 65.7-9 89.3-26.5 23.7-16.7 40-41.2 48.1-73.4h-69c-10.1 29-36.2 35.1-63.9 33.5zm356.1-33.1h75.5s-20.4 99.6-134.2 99.6-142-91.4-142-151.4 10.6-162.4 137.5-166c117.1-1.6 136.3 99.5 136.3 99.5h-80.4s-7.8-34.3-55.5-33c-47.3 1.2-60 46.1-60 88.5s10.6 95.9 63.7 95.9c50.6 1.6 54.6-25.7 59.1-33.1zm172.6-129.3h46.9v-80.4h-46.9v-51.8c0-14.3-7.8-38.8-37.9-38.8h-41.2v337c0 35.1 13.5 56.3 43.2 56.3h35.9zm130.9 222.8v-157.1c0-22.9 5.3-39.6 15.9-50.6 10.6-10.6 26.9-15.9 49.4-15.9h26.5v-81.2s-41.6-.8-71.8 8.2c-19.2 5.7-36.3 13.9-51 25.3-15.1 12.2-27.3 28.6-35.9 48.6-9 20.4-13.1 45.3-13.1 75.1v147.7zm114.7-304.4h80.4v194.6s-2.9 52.6 52.6 52.6c52.6 0 53.9-47.3 53.9-50.6v-159.1s2.9-37.9 37.5-37.9h41.6v180.7c-.4 9.8 10.6 129.7-133 129.3-142 0-132.2-121.2-133-128.5zm555.2 305.2h-79.5v-195.8c0-22.4-9.4-53-54.3-53-44.1 0-53 34.7-53 53v195.8h-80.8v-179.5c0-52.2 15.5-84 40.8-104.8 25.3-20.4 57.5-27.3 90.6-29 17.5 0 35.1 2 51.8 5.7s32.2 11.4 46.1 22.9c11.8-10.1 25.8-17.3 40.8-21.2 15.9-4.1 31.8-7.3 49-7.3 98.3-.4 137.9 44.5 141.2 58.7v254.2h-45.7c-11.4 0-39.2-7.8-39.2-39.2v-156.2c.4-22-7.8-53-54.3-53-46.1 0-54.3 34.7-54.3 53v195.7z" fill="#7b7878"/><path d="m2332.7 1039.4v254.2l167.3-126.9z" fill="#0d68a5"/></svg>